<?xml version="1.0" encoding="UTF-8"?>
<svg id="Camada_1" xmlns="http://www.w3.org/2000/svg" version="1.1" xmlns:xlink="http://www.w3.org/1999/xlink" viewBox="0 0 2000 215">
  <!-- Generator: Adobe Illustrator 30.0.0, SVG Export Plug-In . SVG Version: 2.1.1 Build 123)  -->
  <defs>
    <style>
      .st0 {
        fill: #003f2d;
      }

      .st1 {
        fill: #0b6140;
      }

      .st2 {
        fill: #02271d;
      }

      .st3 {
        fill: #fff;
      }

      .st4, .st5 {
        fill: none;
      }

      .st6 {
        fill: #0d7d4f;
      }

      .st7 {
        fill: #035138;
      }

      .st8 {
        fill: #0f8c55;
      }

      .st9 {
        fill: #57b89c;
      }

      .st10 {
        fill: #0d734a;
      }

      .st11 {
        fill: #8dbe22;
      }

      .st5 {
        stroke: #8dbe22;
        stroke-miterlimit: 10;
        stroke-width: 3px;
      }

      .st12 {
        clip-path: url(#clippath);
      }
    </style>
    <clipPath id="clippath">
      <rect class="st4" width="2000" height="218.9"/>
    </clipPath>
  </defs>
  <g class="st12">
    <g>
      <circle class="st8" cx="761.82" cy="-77.21" r="1627.2"/>
      <circle class="st6" cx="600.46" cy="-323.48" r="1627.2"/>
      <circle class="st10" cx="358.23" cy="-489.59" r="1627.2"/>
      <circle class="st1" cx="119" cy="-661.54" r="1627.2"/>
      <circle class="st7" cx="-120.23" cy="-833.5" r="1627.2"/>
      <circle class="st0" cx="-359.46" cy="-1011.9" r="1627.2"/>
      <circle class="st2" cx="-598.69" cy="-1177.4" r="1627.2"/>
    </g>
  </g>
  <circle class="st5" cx="1847.71" cy="168.49" r="103.92"/>
  <circle class="st11" cx="59.18" cy="36.57" r="77.5"/>
  <circle class="st9" cx="1757.41" cy="258.8" r="99.01"/>
  <path class="st3" d="M-20.95,104.41c-13.1,0-13.12,20.36,0,20.36s13.12-20.36,0-20.36Z"/>
  <path class="st3" d="M109.35,156.66c-10.48,0-10.5,16.29,0,16.29s10.5-16.29,0-16.29Z"/>
  <path class="st3" d="M1729.74,43.22c-15.72,0-15.75,24.43,0,24.43s15.75-24.43,0-24.43Z"/>
  <path class="st3" d="M5.7,217.16c-15.72,0-15.75,24.43,0,24.43s15.75-24.43,0-24.43Z"/>
  <path class="st3" d="M302.08,154.63c-2.62,0-2.62,4.07,0,4.07s2.62-4.07,0-4.07Z"/>
  <path class="st3" d="M1933.22,37.91c-2.62,0-2.62,4.07,0,4.07s2.62-4.07,0-4.07Z"/>
  <path class="st3" d="M211.14,50.8c-5.24,0-5.25,8.14,0,8.14s5.25-8.14,0-8.14Z"/>
</svg>